<svg xmlns="http://www.w3.org/2000/svg" viewBox="0 0 482.81 304.98"><defs><style>.cls-1{fill:#feb819;}.cls-2{fill:#03459c;}.cls-3{fill:#fecc31;}.cls-4{fill:#f18a79;}.cls-5{fill:#9485af;}</style></defs><g id="Layer_2" data-name="Layer 2"><g id="Layer_1-2" data-name="Layer 1"><path class="cls-1" d="M321.34,63c12.49,0,25-.16,37.48,0,3.86.06,6.18-1,7.6-4.76s4-7.26,5.9-10.94,4.53-4.52,8.11-4.5q19,.12,38,.15c1.5,0,3-.06,4.5,0,4.87.36,7.46,3.14,7.45,8.09q0,49.23-.07,98.48v6.17a14,14,0,0,1,9.53,8.32c-4,1.41-6.55-.9-9.41-2.71v8.27c3.11,1.66,3.11,1.66,5.06,4.41-1.46,1.83-3.06-.37-4.78.27-.78,3.62-.26,7.42-.24,11.19,0,1.83-.14,3.66-.14,5.49q0,42.4-.05,84.83c0,6.93.57,13.93-2,20.63-4.06,2.23-8.4,2.52-13,2.52-45.66,0-91.33-.37-137,.32-46.81.71-93.61.31-140.42.79-7.95.08-10.5-2-12.91-9.22Q106.18,234.3,87.17,177.78c-5.59-16.63-10.83-33.38-16.88-49.86-1.09-3-2-6-1-9.25,5-.44,9.22,1.31,13.39,4s9.14,2.53,13.85.71a4,4,0,0,0,2.55-3.92c0-1.86-.93-2.94-2.62-3.81-1.43-.73-3.41-.09-4.35-1.6-.1-1,.52-1.34,1-1.73,7.92,0,15.85.28,23.75-.07,12.32-.56,24.63-.29,36.95-.42,1.28,0,2.66.22,4.25-.88v-8.65c0-9.66,0-19.32,0-29,0-7.15,3.52-10.59,10.71-10.66l11.49-.17c1.48,4.4.4,8.85.34,13.31-.15,11.09.06,22.2,0,33.3,0,1.92,1.17,2.65,2.55,3.13a9.78,9.78,0,0,0,3,.08c22.59,0,45.19,0,67.78-.58,19.45-.48,38.92-.2,58.38-.29a10.6,10.6,0,0,1,4.86.79c-.88,2.58-.72,5.28-.69,7.92.18,13.32,5.73,24.37,16.31,32a37.51,37.51,0,0,0,33.12,6c12.77-3.52,21.34-11.75,26.24-23.73,4.53-11.05,3.61-22-2.13-32.55-8.77-16.07-24.43-22.43-42-19.69a35.09,35.09,0,0,0-11.14,4c-6.21,3.38-10.62,8.4-14.75,13.84A3.78,3.78,0,0,1,321,96.88C321.13,85.58,320.49,74.28,321.34,63Z"/><path d="M317.25,112.17a10.6,10.6,0,0,0-4.86-.79c-19.46.09-38.93-.19-58.38.29-22.59.55-45.19.53-67.78.58a9.78,9.78,0,0,1-3-.08c-1.38-.48-2.56-1.21-2.55-3.13,0-11.1-.18-22.21,0-33.3.06-4.46,1.14-8.91-.34-13.31,1.59-2.28.63-4.86.79-7.29.2-3,.13-6,.05-9-.13-5.14,2.5-6.16,6.57-7.21a18,18,0,0,1,4.48-.12c39.45,0,78.9.09,118.35-.06,10.79,0,10.65,3.56,10.54,10.76-.07,4.49.13,9,.22,13.46-.85,11.29-.21,22.59-.36,33.89A3.78,3.78,0,0,0,322.2,100ZM273.06,96.28C263.68,84,239.6,84.2,228.62,95.73c2.57,3.45,2.89,3.54,5.57,1.29,1-.85,1.8-1.9,3.13-2.41,11.61-4.42,22.57-3.5,33,3.8C271.42,98.12,272.81,98,273.06,96.28ZM284,64.33c0-2.07-2.87-4.67-5.05-4.58a4.74,4.74,0,0,0-4.67,4.72c0,2.27,2.45,4.89,4.63,5.07S284,66.68,284,64.33Zm-58.25,4.13c1.73-3.69,1.67-5.93-.07-7.46a5,5,0,0,0-6,0c-1.89,1.3-1.74,3.19-1.34,4.94C218.92,68.37,221,69,225.76,68.46Z"/><path class="cls-2" d="M8.83,186.65l-.45-1.85c.71-.44.52-.75-.15-1l0-.1a1.85,1.85,0,0,0-.56-2.06l-.59-3.84c0-.14.18-.32.13-.43a4.9,4.9,0,0,0-.45-.76l-.34-1.8c.74-.46.55-.79-.14-1.06,0-.32-.09-.65-.11-1,.05-.13.16-.28.13-.39a5.79,5.79,0,0,0-.32-.73l-.57-2.83c.71-.43.55-.79-.09-1.1q-.72-6.47-1.42-12.93l0-1.12c0-2.62-.09-5.24-.13-7.85.66-1.49-.5-3.33.86-4.65a4.92,4.92,0,0,1,3-.41c10.91,0,21.77-.85,32.65-1.69,7.43-.58,14.63-2.25,22-3.15,1.42,9,2.69,18.08,4.29,27.07a229.63,229.63,0,0,1,3.08,59.12c-1.08,13.42-1,26.94-1.43,40.41-.18,5.15-.45,10.3-.67,15.46a2.31,2.31,0,0,1-1,2.13,37.28,37.28,0,0,0-11.21.07,2.47,2.47,0,0,0-2.1.3l-1.73-.39-3.11-.36c-1.3-11.58-1.78-23.21-2.36-34.84l-.1-1.32-.47-7.76c.72-.4.63-.77,0-1.11Q45.14,220,45,205.27c0-3.56-1.31-6.82-2.36-10.14a24.71,24.71,0,0,0-2.36-5.74q-1,14.19-2.06,28.4c-.68.29-.76.62-.06,1l-.3,2.89a1.7,1.7,0,0,0-.28,2.19l-.29,4c-1,.58-1.06,1.22-.15,1.93q-.65,7-1.27,13.94a1.61,1.61,0,0,0-.34,2.08l-.3,4c-1.46,1.9-.93,4-.65,6.11q-1.05,10.88-2.09,21.76c-.09.95.07,2-1.12,2.51a97.83,97.83,0,0,0-17.2,0l-.88-.47c-.17-3.64.6-7.33-.59-10.92-.6-17.24-.48-34.49-.34-51.73,0-3,0-6,.12-9,.14-4.15.12-8.27-1.3-12.25a.9.9,0,0,0-.34-1.17l-.69-2.86c.05-1.38.51-2.87-.95-3.89l0-.09c0-.14.15-.3.11-.41A5.24,5.24,0,0,0,8.83,186.65Z"/><path class="cls-3" d="M62.14,135.94c-7.35.9-14.55,2.57-22,3.15-10.88.84-21.74,1.71-32.65,1.69a4.92,4.92,0,0,0-2.95.41c-1.36,1.32-.2,3.16-.86,4.65,0-2.63-1.19-5.26-1.11-7.63a86.53,86.53,0,0,1,.86-8.82c.77-5.73,1.89-11.44,1.77-17.22-.1-5,.78-9.89.92-14.86A142.25,142.25,0,0,0,4.9,78C4.3,72.37,2,66.92.75,61.28A31.69,31.69,0,0,1,.26,50.41,10.52,10.52,0,0,1,5,42.64a25.54,25.54,0,0,1,12.08-3.92c4.37-.36,7.84,2.14,11.06,4.65,4.28,3.34,4.42,3.43,6.92-1.48,2.15-.77,2.82,2.26,5.29,1.8C42,42,43.11,39.09,45.81,38s5.37-1.62,8.08-2.38c3.33-.94,6.66-1.88,10-2.76,1.72-.45,3.47-1.06,5.24-.17-.15,1.25,1.12,2.2,1,3.27-.77,5.51,3.91,8.64,5.5,13.1.06,2.45-1,3.81-3.45,4.66A55.66,55.66,0,0,0,62,58.28c-2.13,1.28-5.09.48-6.47,2.63.72,13.79,2.38,27.23,2.65,40.75-8.83-2.32-16.62-7.12-25-10.46a5,5,0,0,1-2.89-3.75C29.13,83,26.61,79,26.22,74.31c-.17-2.12-1.69-2.89-3.53-2.48s-4.41.75-5.43,2.07a7.35,7.35,0,0,1-6.62,3c-1.37,4,.42,7.15,1.6,10.31,3.65,9.72,9.15,17.49,19.74,21.1,9.79,3.33,20,4.89,29.81,7.94-3.09,1.33-1.74,3.91-1.46,6a34.49,34.49,0,0,0,2,8C63.19,132.34,62.76,134.07,62.14,135.94Z"/><path class="cls-3" d="M428.29,296.45c2.55-6.7,2-13.7,2-20.63q.09-42.42.05-84.83c0-1.83.09-3.66.14-5.49.81-.54,2.13-.92,2.35-1.65,1.32-4.29,4.4-7.34,7.12-10.66a5,5,0,0,0,.55-1.39c.94.32,1-.44,1.24-1,2.52.12,3.49-2.23,5.18-3.39a13.57,13.57,0,0,1,9.32-2.56,9.85,9.85,0,0,1,8.89,7.44,42.79,42.79,0,0,1,.64,17.8,248.78,248.78,0,0,1-5.43,27.68,5.42,5.42,0,0,0,.08,3.42,12.75,12.75,0,0,0,4.28,2.49c5.51,2.4,7.79,5.44,7.23,10.86-.38,3.68-2.47,6.79-4.86,9.59-1.18,1.38-2.55,2.62-3.84,3.93a2.82,2.82,0,0,0-.92,3.15c.87,1.23,2.56,1.64,4.43,1.71a25.24,25.24,0,0,1,12.15,3.75c3.41,2,4.48,4.32,3.69,8.08-1,4.78-4.43,8.11-7.16,11.78a49.78,49.78,0,0,1-21.48,17.1C445.64,297,437.21,298.94,428.29,296.45Z"/><path class="cls-4" d="M61.79,116.26c-9.83-3.05-20-4.61-29.81-7.94-10.59-3.61-16.09-11.38-19.74-21.1-1.18-3.16-3-6.33-1.6-10.31a7.35,7.35,0,0,0,6.62-3c1-1.32,3.52-1.65,5.43-2.07s3.36.36,3.53,2.48c.39,4.69,2.91,8.7,4.05,13.14a5,5,0,0,0,2.89,3.75c8.41,3.34,16.2,8.14,25,10.46,6.16,2.43,12.36,4.75,18.45,7.34,2.69,1.15,5.19,1.82,8,.57,3.62-1.62,6.3-.11,8.56,2.7-.51.39-1.13.7-1,1.73.94,1.51,2.92.87,4.35,1.6,1.69.87,2.65,2,2.62,3.81a4,4,0,0,1-2.55,3.92c-4.71,1.82-9.53,2-13.85-.71s-8.41-4.39-13.39-4C67.18,116.74,64.3,117.09,61.79,116.26Z"/><path class="cls-4" d="M75.61,49.1C74,44.64,69.34,41.51,70.11,36c.15-1.07-1.12-2-1-3.27,3.17-1.53,7-1.29,10.49-4.1C68.84,23.25,58.3,18.54,47.69,14c2-1.85,2.7-3.93,1.6-6.58A13.89,13.89,0,0,1,48.74,4c1.82-.83,2.85.49,3.78,1.58,2.14,2.51,5,3.73,8,4.74C70,13.53,79.57,16.69,89.07,20a17.14,17.14,0,0,1,7.16,4.29c3.76,4,4,9,.11,12.75A47.47,47.47,0,0,1,75.61,49.1Z"/><path class="cls-4" d="M46.74,13.76c-.78,3.71-1.13,7.5-2.39,11.15a12.28,12.28,0,0,1-6,7.35C39,35.52,37.15,38,35,40.48L24.54,35.3c-.87-3.32,1.53-6.34.34-9.47.6-2.29.27-4.62.36-6.92.06-1.54.19-3,2.06-3.42,1.41.45,1.94,1.79,2.9,2.66.07.78.21,1.66,1.26,1.3s.66-1.18.42-1.9a11,11,0,0,1,1.5-4.64c.82-1.37,2.06-2.42,3.63-2C40.27,11.78,43.82,11.73,46.74,13.76Z"/><path class="cls-2" d="M30.2,18.15c-1-.87-1.49-2.21-2.9-2.66-1.87.4-2,1.88-2.06,3.42-.09,2.3.24,4.63-.36,6.92-3.76-6.15-5.47-12.6-2.64-19.61A8.43,8.43,0,0,1,28.38,1C35.56-.72,42.48-.48,48.74,4a13.89,13.89,0,0,0,.55,3.39c1.1,2.65.36,4.73-1.6,6.58a1.46,1.46,0,0,0-.95-.24c-2.92-2-6.47-2-9.73-2.85-1.57-.42-2.81.63-3.63,2a11,11,0,0,0-1.5,4.64Z"/><path class="cls-2" d="M28.1,286.94c4.54,7.63,12,11.88,19.6,16.44-4.05,1.95-23.62,2.12-31.5.5-.06-5.56,0-11.16.46-16.76Z"/><path class="cls-2" d="M64.43,287.57c5.29,6.79,12.31,11.38,20,15.28-1.17,2.17-3,1.9-4.5,1.91-8.65.07-17.3,0-26.44,0A124.44,124.44,0,0,1,53.44,288Z"/><path class="cls-4" d="M53.11,280.5a2.47,2.47,0,0,1,2.1-.3c1.82,1.19,3.85.46,5.78.56s3.19.75,3.38,2.81l-.11,3.11c-3.63.24-7.12-1.48-10.78-.73C53.35,284.13,53.23,282.32,53.11,280.5Z"/><path class="cls-1" d="M470.29,147c-5.65,3.2-11.1,2.69-14.72-1.1C460.73,142.76,464.21,143,470.29,147Z"/><path class="cls-1" d="M434.59,141.92c6.2.79,8.18,5.44,10.3,10.44-3.43.81-5.55-1.25-7.31-3.11S433.3,145.39,434.59,141.92Z"/><path class="cls-1" d="M443.53,124.32c5.14,1.75,8,5.1,9.72,9.85-2.78,1.81-4.61,0-6.26-1.34C444.52,130.88,442.56,128.48,443.53,124.32Z"/><path class="cls-5" d="M28.1,286.94l-11.44.18a17.39,17.39,0,0,1-.25-3.85c.29-1.95-1-2.48-2.29-3.14a97.83,97.83,0,0,1,17.2,0c-.92,1.06-3.55-.16-3.29,2.47a18.27,18.27,0,0,0-9.51-.67c-.79,2.44.16,3.43,2.34,3.9,2.55.55,4.69-1.2,7.14-1Z"/><path class="cls-1" d="M465.51,158.1c-6.42,4-9.59,3.7-14.46-1.17C456.11,154.54,460.57,155.27,465.51,158.1Z"/><path class="cls-1" d="M478.38,111.51c-1.58,3.93-4.31,6.24-9.15,6.24C470.69,112.77,474.68,112.42,478.38,111.51Z"/><path class="cls-1" d="M441.72,170.8c-.23.56-.3,1.32-1.24,1,1.53-6.56,3.54-12.94,7.76-18.47-1.59,4.11-3.09,8.26-4.79,12.32C442.74,167.34,441.77,168.9,441.72,170.8Z"/><path class="cls-4" d="M28,284.83c-2.45-.18-4.59,1.57-7.14,1-2.18-.47-3.13-1.46-2.34-3.9a18.27,18.27,0,0,1,9.51.67Z"/><path class="cls-1" d="M439.68,136c4.47.17,7.57,1.28,9.48,5.5C444.88,141.27,441.86,140,439.68,136Z"/><path class="cls-1" d="M458,112.91c2.37,2.81,2.95,6,3,9.63C457,120.16,455.8,116.38,458,112.91Z"/><path class="cls-1" d="M461.67,136.23c3.48-2.22,6.39-1.56,9.58.17C466.41,139.32,465.93,139.31,461.67,136.23Z"/><path class="cls-1" d="M450.45,120.79a12.1,12.1,0,0,1,6.7,7.51C452.2,127.11,451.26,126.1,450.45,120.79Z"/><path class="cls-1" d="M471.34,122.12c1.9-2.35,3.85-2.94,6.3-2.22C475.35,123.43,475.35,123.43,471.34,122.12Z"/><path class="cls-5" d="M53.48,286c3.66-.75,7.15,1,10.78.73a1.62,1.62,0,0,1,.17.89l-11,.39Z"/><path class="cls-1" d="M465.61,117.39c-2-1.48-2.87-3.21-1.91-5.61C467.3,112.85,465.93,115.33,465.61,117.39Z"/><path class="cls-5" d="M64.37,283.57c-.19-2.06-1.45-2.71-3.38-2.81s-4,.63-5.78-.56a37.28,37.28,0,0,1,11.21-.07C64.72,280.67,65.47,282.67,64.37,283.57Z"/><path class="cls-1" d="M448.83,151.46c-.43-2.86,1.21-4.8,3-6.69C451.67,147.38,450.06,149.34,448.83,151.46Z"/><path class="cls-1" d="M466.49,128.29c3.28,0,3.28,0,5.54,2.18C469.39,131.6,467.77,130.66,466.49,128.29Z"/><path class="cls-5" d="M12.65,268.74c1.19,3.59.42,7.28.59,10.92C11.61,276.1,12.29,272.41,12.65,268.74Z"/><path class="cls-1" d="M462.25,127.78c.53-2.3,2.2-3.69,4-5l-.08-.07c-.79,2.09-1.66,4.12-4,4.95Z"/><path class="cls-1" d="M462.17,127.71c.22,1.81-.47,3.07-2.81,4.07.65-2,1.31-3.32,2.89-4Z"/><path class="cls-1" d="M458.17,133.73a5.4,5.4,0,0,1-3,5l.08.08c.09-2.21.83-4,3-5Z"/><path class="cls-5" d="M34.53,255.88c-.28-2.09-.81-4.21.65-6.11C35.26,251.84,35.74,254,34.53,255.88Z"/><path class="cls-5" d="M9.15,187.88c1.46,1,1,2.51.95,3.89C8.8,190.71,9.16,189.25,9.15,187.88Z"/><path class="cls-1" d="M455.17,138.7a2.9,2.9,0,0,1-1.49,2.65c-.19-1.34.65-2,1.57-2.57Z"/><path class="cls-5" d="M48.27,279.75l3.11.36C50.26,280.71,49.13,281.39,48.27,279.75Z"/><path class="cls-3" d="M3.83,153.69l0,1.12C3.4,154.45,3.4,154.08,3.83,153.69Z"/><path class="cls-5" d="M7.64,181.66a1.85,1.85,0,0,1,.56,2.06A1.42,1.42,0,0,1,7.64,181.66Z"/><path class="cls-5" d="M37.53,223.87a1.7,1.7,0,0,1,.28-2.19A1.58,1.58,0,0,1,37.53,223.87Z"/><path class="cls-5" d="M35.48,245.8a1.61,1.61,0,0,1,.34-2.08A1.43,1.43,0,0,1,35.48,245.8Z"/><path class="cls-1" d="M466.27,122.83l.31-1.35c.69.68,0,.93-.39,1.28Z"/><path class="cls-5" d="M37.09,229.78c-.91-.71-.8-1.35.15-1.93Z"/><path class="cls-5" d="M8.23,183.82c.67.23.86.54.15,1Z"/><path class="cls-5" d="M8.83,186.65a5.24,5.24,0,0,1,.41.73c0,.11-.07.27-.11.41a5.71,5.71,0,0,1-.57-.75C8.52,187,8.73,186.78,8.83,186.65Z"/><path class="cls-5" d="M10.79,194.63a.9.9,0,0,1,.34,1.17C10.7,195.5,10.36,195.18,10.79,194.63Z"/><path class="cls-5" d="M38.11,218.79c-.7-.38-.62-.71.06-1Z"/><path class="cls-5" d="M6.25,173.77c.69.27.88.6.14,1.06Z"/><path class="cls-5" d="M45.3,234.72c.67.34.76.71,0,1.11Z"/><path class="cls-5" d="M45.81,243.59l.1,1.32C45.31,244.51,45.25,244.07,45.81,243.59Z"/><path class="cls-5" d="M6,171.67a5.79,5.79,0,0,1,.32.73c0,.11-.08.26-.13.39a7.55,7.55,0,0,1-.52-.78S5.83,171.79,6,171.67Z"/><path class="cls-5" d="M5.29,167.74c.64.31.8.67.09,1.1Z"/><path class="cls-1" d="M452.69,143.59c-.06-.11-.19-.24-.18-.34s.16-.21.24-.32c.07.12.2.24.19.35S452.78,143.49,452.69,143.59Z"/><path class="cls-5" d="M6.73,176.63a4.9,4.9,0,0,1,.45.76c.05.11-.08.29-.13.43a5.08,5.08,0,0,1-.54-.77C6.47,177,6.65,176.78,6.73,176.63Z"/><path class="cls-1" d="M458.25,133.8l.34-.75c.59.68-.16.53-.42.68Z"/><path class="cls-5" d="M30.2,18.15l1.68-.6c.24.72.5,1.59-.42,1.9S30.27,18.93,30.2,18.15Z"/></g></g></svg>