<svg xmlns="http://www.w3.org/2000/svg" viewBox="0 0 250 300"><defs><style>.cls-1{fill:#fefdfc;}.cls-2{fill:#fef6e6;}.cls-3{fill:#feae15;}.cls-4{fill:#feac0f;}</style></defs><g id="Layer_2" data-name="Layer 2"><g id="Layer_1-2" data-name="Layer 1"><path class="cls-1" d="M250,173V300H0V0H250V162h-1.07c-.11-.82-.24-1.64-.33-2.47-5-49.25-29.15-85.5-73.51-107.75a110.05,110.05,0,0,0-47-12.06,1.41,1.41,0,0,0-.48.12l.21-.27c6.13,1.66,12.37,2.9,18.3,5,41.15,14.75,68.31,43.38,82,84.6,9.58,28.85,8.66,57.79-3,86-12,29-34,47.91-62.49,59.85-6.38,2.68-13.09,4.56-19.93,6.91a51,51,0,0,0,.59,7c1.42,6.54,2,6.8,8.35,5.09,30.25-8.11,54.75-24.72,73-50.19,15.09-21.11,22.85-44.93,24.4-70.79ZM146.2,194.9l-2.62-1.39-1.1,1.29L145,196c4.69,6.76,3.22,13.67.25,20.45-2.87,6.56-6.14,12.93-9.1,19.44-7.94,17.41-8.59,34.7,1.06,51.75a27.64,27.64,0,0,0,2.15,2.91c.77-2.1.35-3.79.31-5.49-.1-4.62-.53-9.3.05-13.84,1.53-11.85,7.81-21.82,13.43-32,2.32-4.23,4.8-8.39,6.82-12.77C167.05,211,162.46,200.66,146.2,194.9ZM4,226l-.13-.1.17.12a27.19,27.19,0,0,0,1.75,4.62C33.58,277,74,300.22,128.5,297.75c3.2-.14,6.38-.72,10.15-1.17-1.76-3.78-3.18-6.75-4.51-9.76-1.15-2.58-2.64-3.34-5.78-3-25.57,2.43-50.11-1.38-73.35-12.7C33.82,260.76,17,245.49,4,226Zm99.13,33.71c-.08-2.5-.07-5-.27-7.48-.95-12,2-23.08,8.06-33.4,8.52-14.44,20.87-25.31,33.28-36.2,10.86-9.53,21.84-19,31.71-29.54,9-9.59,9.73-20.41,3.77-30-1.76,9.82-8.48,15.74-15.33,21.52-2.92,2.47-6.07,4.66-9,7.08C141.45,163,126.6,173.44,113.93,186c-21.15,21-24.61,48.18-11.69,74.91l2.15,5,.89-.41ZM27,133l-6.76-8.71-1.33,4.06-3.08-6.14-1.09,7.86c1.32-.68,2.62-1.35,3.91-2v5.7l1,.87,2-4.52L26.34,134l-.86,2.54L30.24,140l.51,6.23,1.24-.13L31.48,140c.75-4.19,3.65-2.07,5.4-1.49,10.23,3.42,16.6,11.2,20.2,20.74,4,10.64,6.65,21.8,9.89,32.73l.3,3.92.9-.1L67.83,192c.73-5.09,1.16-10.24,2.24-15.25,3.85-17.9,12-33,28.51-42.44,1-.59,2.07-1.23,3.91-2.32C88.78,129.59,79.57,121.48,70.62,113a23.68,23.68,0,0,0-28.57-3.13C37.28,112.77,33.1,117,34,122.62,35,129.09,31.34,130.9,27,133ZM86.22,236q1.4,3.53,2.81,7.05l.85-.29-2.06-7c-3.47-20.44-.55-39.78,12.36-56.31a282,282,0,0,1,28.1-30.27c12.41-11.8,25.92-22.43,38.49-34.08,7.36-6.82,13.36-14.89,15-25.3a27.32,27.32,0,0,0-3.25-17.31c-2.86,5-4.66,10.35-8.26,13.9a260.41,260.41,0,0,1-25.56,22.18c-16.58,12.56-33.87,24.24-47.63,40.12C73.14,176.3,72.18,206.17,86.22,236ZM154.46,32.84c-2.79-23.9-27.64-35.35-47.5-30C114.26,24.85,132.92,41.45,154.46,32.84ZM98.38,75.44c12.38,3,23.88,4,35.34-.47a28.47,28.47,0,0,0,14.37-12.52c4.84-8.25,4.24-9.62-5-11.64a36.71,36.71,0,0,0-5.4-.83C118.81,48.79,107.63,59.68,98.38,75.44Zm16-36c-11.77-16.57-41.46-16.4-56.09.32C75.53,54.35,101.75,58.69,114.34,39.46ZM140.7,290.61l-1.25.67q2.09,3.35,4.18,6.69l.49-.28ZM12.25,126.09l.26-1.74-4-.52-.23,1.38ZM2.67,223.15c-.13-.26-.19-.64-.39-.72s-.5.14-.76.22l.49.95Z"/><path class="cls-2" d="M250,173h-1c0-3.67,0-7.33,0-11H250Z"/><path class="cls-3" d="M248.93,162c0,3.66,0,7.32,0,11-1.55,25.86-9.31,49.68-24.4,70.79-18.2,25.47-42.7,42.08-73,50.19-6.38,1.71-6.93,1.45-8.35-5.09a51,51,0,0,1-.59-7c6.84-2.35,13.55-4.23,19.93-6.91,28.45-11.94,50.5-30.84,62.49-59.85,11.64-28.18,12.56-57.12,3-86-13.68-41.22-40.84-69.85-82-84.6-5.93-2.12-12.17-3.36-18.3-5l-.21.27a1.41,1.41,0,0,1,.48-.12,110.05,110.05,0,0,1,47,12.06c44.36,22.25,68.55,58.5,73.51,107.75C248.69,160.37,248.82,161.19,248.93,162Z"/><path class="cls-4" d="M86.22,236c-14-29.81-13.08-59.68,10.87-87.31,13.76-15.88,31-27.56,47.63-40.12a260.41,260.41,0,0,0,25.56-22.18c3.6-3.55,5.4-8.92,8.26-13.9a27.32,27.32,0,0,1,3.25,17.31c-1.66,10.41-7.66,18.48-15,25.3-12.57,11.65-26.08,22.28-38.49,34.08a282,282,0,0,0-28.1,30.27C87.27,196,84.35,215.3,87.82,235.74Z"/><path class="cls-4" d="M30.24,140l-4.76-3.49c.15-.46.51-1.5.86-2.54l.67-1c4.33-2.08,8-3.89,7-10.36-.88-5.64,3.3-9.85,8.07-12.78A23.68,23.68,0,0,1,70.62,113c8.95,8.51,18.16,16.62,31.87,19.05-1.84,1.09-2.86,1.73-3.91,2.32C82,143.75,73.92,158.88,70.07,176.78c-1.08,5-1.51,10.16-2.24,15.25L67,192c-3.24-10.93-5.88-22.09-9.89-32.73-3.6-9.54-10-17.32-20.2-20.74-1.75-.58-4.65-2.7-5.4,1.49Zm11.6-23.21c-1.5,1.88-3.32,3.26-3.11,4.12.33,1.3,2.08,2.24,3.23,3.33,1-1.07,2.7-2.09,2.79-3.23S43.24,118.69,41.84,116.78Z"/><path class="cls-4" d="M102.24,260.94C89.32,234.21,92.78,207,113.93,186c12.67-12.59,27.52-23,41.41-34.34,3-2.42,6.11-4.61,9-7.08,6.85-5.78,13.57-11.7,15.33-21.52,6,9.55,5.24,20.37-3.77,30-9.87,10.5-20.85,20-31.71,29.54-12.41,10.89-24.76,21.76-33.28,36.2-6.09,10.32-9,21.38-8.06,33.4.2,2.48.19,5,.27,7.48C102.85,260.1,102.54,260.52,102.24,260.94Z"/><path class="cls-3" d="M4,226c13,19.54,29.8,34.81,51,45.13,23.24,11.32,47.78,15.13,73.35,12.7,3.14-.3,4.63.46,5.78,3,1.33,3,2.75,6,4.51,9.76-3.77.45-7,1-10.15,1.17C74,300.22,33.58,277,5.81,230.6A27.19,27.19,0,0,1,4.06,226Z"/><path class="cls-4" d="M146.2,194.9c16.26,5.76,20.85,16.13,13.77,31.52-2,4.38-4.5,8.54-6.82,12.77-5.62,10.2-11.9,20.17-13.43,32-.58,4.54-.15,9.22-.05,13.84,0,1.7.46,3.39-.31,5.49a27.64,27.64,0,0,1-2.15-2.91c-9.65-17.05-9-34.34-1.06-51.75,3-6.51,6.23-12.88,9.1-19.44,3-6.78,4.44-13.69-.25-20.45Z"/><path class="cls-4" d="M154.46,32.84c-21.54,8.61-40.2-8-47.5-30C126.82-2.51,151.67,8.94,154.46,32.84Z"/><path class="cls-4" d="M98.38,75.44C107.63,59.68,118.81,48.79,137.7,50a36.71,36.71,0,0,1,5.4.83c9.23,2,9.83,3.39,5,11.64A28.47,28.47,0,0,1,133.72,75C122.26,79.49,110.76,78.49,98.38,75.44Z"/><path class="cls-4" d="M114.34,39.46c-12.59,19.23-38.81,14.89-56.09.32C72.88,23.06,102.57,22.89,114.34,39.46Z"/><path class="cls-3" d="M27,133l-.67,1-4.63-3.89-2,4.52-1-.87V128c-1.29.68-2.59,1.35-3.91,2l1.09-7.86,3.08,6.14,1.33-4.06Z"/><path class="cls-3" d="M140.7,290.61l3.42,7.08-.49.28q-2.1-3.35-4.18-6.69Z"/><path class="cls-3" d="M86.22,236l1.6-.24c.69,2.33,1.37,4.66,2.06,7L89,243Q87.62,239.51,86.22,236Z"/><path class="cls-3" d="M30.24,140h1.24l.51,6.11-1.24.13Z"/><path class="cls-3" d="M102.24,260.94c.3-.42.61-.84.91-1.27l2.13,5.84-.89.41Q103.31,263.43,102.24,260.94Z"/><path class="cls-3" d="M12.25,126.09l-4-.88.23-1.38,4,.52Z"/><path class="cls-3" d="M67,192l.86.07c.11,1.25.23,2.5.34,3.75l-.9.1Z"/><path class="cls-3" d="M146.2,194.9,145,196l-2.52-1.19,1.1-1.29Z"/><path class="cls-2" d="M2.67,223.15,2,223.6l-.49-.95c.26-.08.58-.3.76-.22S2.54,222.89,2.67,223.15Z"/><polygon class="cls-3" points="4.06 225.98 3.89 225.86 4.02 225.96 4.06 225.98"/><path class="cls-2" d="M41.84,116.78c1.4,1.91,3,3.13,2.91,4.22S43,123.16,42,124.23c-1.15-1.09-2.9-2-3.23-3.33C38.52,120,40.34,118.66,41.84,116.78Z"/></g></g></svg>