<?xml version="1.0" encoding="iso-8859-1"?>
<!-- Generator: Adobe Illustrator 19.0.0, SVG Export Plug-In . SVG Version: 6.00 Build 0)  -->
<svg version="1.1" id="Layer_1" xmlns="http://www.w3.org/2000/svg" xmlns:xlink="http://www.w3.org/1999/xlink" x="0px" y="0px"
	 viewBox="0 0 512 512" style="enable-background:new 0 0 512 512;" xml:space="preserve">
<g>
	<g>
		<path d="M256.048,20.767c-61.648,0-111.801,50.153-111.801,111.801c0,61.648,50.153,111.801,111.801,111.801
			s111.801-50.153,111.801-111.801C367.849,70.92,317.696,20.767,256.048,20.767z M256.048,210.97
			c-43.231,0-78.403-35.172-78.403-78.403c0-43.231,35.172-78.403,78.403-78.403c43.231,0,78.403,35.172,78.403,78.403
			C334.452,175.798,299.279,210.97,256.048,210.97z"/>
	</g>
</g>
<g>
	<g>
		<path d="M256.048,71.488c-33.679,0-61.08,27.401-61.08,61.08s27.401,61.08,61.08,61.08c33.679,0,61.079-27.401,61.079-61.08
			C317.127,98.888,289.728,71.488,256.048,71.488z M256.048,160.249c-15.264,0-27.682-12.418-27.682-27.682
			c0-15.264,12.418-27.682,27.682-27.682c15.264,0,27.681,12.418,27.681,27.682C283.729,147.831,271.312,160.249,256.048,160.249z"
			/>
	</g>
</g>
<g>
	<g>
		<path d="M501.108,316.672c-18.075-22.782-51.25-26.097-73.456-7.46l-79.113,66.383h-37.11
			c18.518-7.578,31.898-25.423,32.467-46.178c0.797-29.076-22.488-52.931-51.476-52.931H137.134v-15.706
			c0-9.222-7.477-16.699-16.699-16.699H16.699C7.477,244.082,0,251.559,0,260.781v213.754c0,9.222,7.477,16.699,16.699,16.699
			h103.736c9.222,0,16.699-7.477,16.699-16.699v-27.328l32.694,27.431c9.007,7.557,20.442,11.718,32.199,11.718h156.499
			c11.757,0,23.192-4.161,32.201-11.719l102.571-86.061C514.766,370.56,518.272,338.305,501.108,316.672z M103.736,457.836H33.398
			V277.48h70.339C103.736,287.815,103.736,448.972,103.736,457.836z M471.829,362.989L369.26,449.05
			c-3.004,2.519-6.815,3.908-10.735,3.908H202.027c-3.92,0-7.729-1.387-10.733-3.905l-54.16-45.44v-93.728h155.284
			c10.112,0,18.373,8.304,18.091,18.618c-0.266,9.693-8.706,17.578-18.815,17.578c-7.262,0-59.114,0-65.688,0
			c-9.222,0-16.699,7.477-16.699,16.699c0,9.222,7.477,16.699,16.699,16.699h29.59l25.868,21.703
			c6.005,5.037,13.627,7.813,21.466,7.813h45.608c7.841,0,15.465-2.775,21.467-7.814l79.113-66.383
			c7.771-6.52,19.432-5.425,25.825,2.634C480.971,345.026,479.574,356.492,471.829,362.989z"/>
	</g>
</g>
<g>
</g>
<g>
</g>
<g>
</g>
<g>
</g>
<g>
</g>
<g>
</g>
<g>
</g>
<g>
</g>
<g>
</g>
<g>
</g>
<g>
</g>
<g>
</g>
<g>
</g>
<g>
</g>
<g>
</g>
</svg>
